<?xml version="1.0" encoding="iso-8859-1"?>
<!-- Generator: Adobe Illustrator 19.0.0, SVG Export Plug-In . SVG Version: 6.00 Build 0)  -->
<svg version="1.1" id="Capa_1" xmlns="http://www.w3.org/2000/svg" xmlns:xlink="http://www.w3.org/1999/xlink" x="0px" y="0px"
	 viewBox="0 0 512 512" style="enable-background:new 0 0 512 512;" xml:space="preserve">
<g>
	<g>
		<path d="M496.999,241l-82.108,0.001c-3.068-32.765-16.076-62.686-35.98-86.699l58.107-58.109c5.857-5.858,5.857-15.355,0-21.213
			c-5.858-5.857-15.355-5.858-21.213,0l-58.107,58.109c-24.013-19.903-53.932-32.91-86.696-35.979V15c0-8.284-6.716-15-15-15
			s-15,6.716-15,15v82.11c-32.765,3.069-62.684,16.076-86.697,35.979l-58.11-58.111c-5.857-5.858-15.355-5.857-21.213-0.001
			c-5.858,5.858-5.858,15.356,0,21.213l58.11,58.112c-19.903,24.013-32.911,53.933-35.979,86.698H15c-8.284,0-15,6.716-15,14.999
			C0,264.284,6.715,271,14.999,271l82.112,0.001c3.069,32.764,16.076,62.682,35.978,86.695l-58.109,58.11
			c-5.858,5.857-5.858,15.355,0,21.213c2.929,2.929,6.767,4.394,10.606,4.394c3.838,0,7.678-1.465,10.606-4.393l58.11-58.109
			c24.013,19.904,53.933,32.912,86.699,35.981V497c0,8.284,6.716,15,15,15s15-6.716,15-15v-82.109
			c32.765-3.069,62.684-16.077,86.697-35.98l58.107,58.108c2.929,2.929,6.767,4.394,10.607,4.394c3.838,0,7.678-1.465,10.606-4.394
			c5.858-5.857,5.858-15.355,0-21.213l-58.107-58.108c19.903-24.013,32.91-53.932,35.979-86.696L497,271c8.284,0,15-6.716,15-15.001
			C512,247.715,505.284,241,496.999,241z M385.601,256.032C385.583,327.479,327.452,385.6,256.002,385.6
			c-71.462,0-129.601-58.139-129.601-129.601c0-71.46,58.139-129.599,129.601-129.599c71.452,0,129.583,58.123,129.599,129.571
			c0,0.01-0.001,0.02-0.001,0.031C385.6,256.012,385.601,256.022,385.601,256.032z"/>
	</g>
</g>
<g>
</g>
<g>
</g>
<g>
</g>
<g>
</g>
<g>
</g>
<g>
</g>
<g>
</g>
<g>
</g>
<g>
</g>
<g>
</g>
<g>
</g>
<g>
</g>
<g>
</g>
<g>
</g>
<g>
</g>
</svg>
