<?xml version="1.0" encoding="utf-8"?>
<!-- Generator: Adobe Illustrator 16.0.0, SVG Export Plug-In . SVG Version: 6.00 Build 0)  -->
<!DOCTYPE svg PUBLIC "-//W3C//DTD SVG 1.1//EN" "http://www.w3.org/Graphics/SVG/1.1/DTD/svg11.dtd">
<svg version="1.1" id="Layer_1" xmlns="http://www.w3.org/2000/svg" xmlns:xlink="http://www.w3.org/1999/xlink" x="0px" y="0px"
	 width="575.43px" height="575.43px" viewBox="0 0 575.43 575.43" enable-background="new 0 0 575.43 575.43" xml:space="preserve">
<path fill="#73BA9B" d="M529.78,82.57c-29.787-32.307-70.659-50.101-115.097-50.101c-33.217,0-63.636,10.501-90.416,31.209
	c-13.513,10.453-25.758,23.242-36.553,38.168c-10.791-14.922-23.04-27.715-36.557-38.168
	c-26.775-20.708-57.195-31.209-90.411-31.209c-44.438,0-85.314,17.793-115.102,50.101C16.213,114.5,0,158.121,0,205.403
	c0,48.665,18.136,93.212,57.072,140.196c34.832,42.027,84.893,84.691,142.865,134.094c19.795,16.871,42.233,35.995,65.532,56.365
	c6.155,5.392,14.053,8.359,22.245,8.359c8.188,0,16.09-2.968,22.236-8.351c23.299-20.375,45.75-39.507,65.554-56.388
	c57.964-49.394,108.025-92.053,142.856-134.085c38.937-46.979,57.068-91.526,57.068-140.195
	C575.43,158.121,559.217,114.5,529.78,82.57z"/>
</svg>
