<?xml version="1.0" encoding="utf-8"?>
<!-- Generator: Adobe Illustrator 16.0.0, SVG Export Plug-In . SVG Version: 6.00 Build 0)  -->
<!DOCTYPE svg PUBLIC "-//W3C//DTD SVG 1.1//EN" "http://www.w3.org/Graphics/SVG/1.1/DTD/svg11.dtd">
<svg version="1.1" id="Layer_1" xmlns="http://www.w3.org/2000/svg" xmlns:xlink="http://www.w3.org/1999/xlink" x="0px" y="0px"
	 width="575.43px" height="575.43px" viewBox="0 0 575.43 575.43" enable-background="new 0 0 575.43 575.43" xml:space="preserve">
<g>
	<g>
		<path fill="#73BA9B" d="M499.487,157.002c-0.175-2.342-2.135-4.154-4.481-4.154h-80.92v-22.478
			C414.086,58.483,355.599,0,283.715,0S153.344,58.483,153.344,130.371v22.478h-80.92c-2.347,0-4.307,1.812-4.482,4.154
			l-31.469,413.59c-0.095,1.245,0.333,2.477,1.187,3.394c0.85,0.922,2.045,1.443,3.295,1.443h485.519
			c1.249,0,2.445-0.521,3.295-1.438s1.281-2.148,1.187-3.394L499.487,157.002z M189.309,130.371
			c0-52.054,42.348-94.406,94.406-94.406s94.406,42.353,94.406,94.406v22.478H189.309V130.371z M171.326,278.725
			c-24.793,0-44.956-20.167-44.956-44.956c0-17.942,8.991-34.107,26.974-41.202v41.202c0,9.917,8.069,17.982,17.982,17.982
			s17.982-8.065,17.982-17.982v-41.175c17.982,7.094,26.973,23.381,26.973,41.175C216.282,258.557,196.119,278.725,171.326,278.725z
			 M396.104,278.725c-24.793,0-44.955-20.167-44.955-44.956c0-17.942,8.99-34.107,26.973-41.202v41.202
			c0,9.917,8.069,17.982,17.982,17.982s17.982-8.065,17.982-17.982v-41.175c17.981,7.094,26.973,23.381,26.973,41.175
			C441.059,258.557,420.896,278.725,396.104,278.725z"/>
	</g>
</g>
</svg>
